solid OpenSCAD_Model
  facet normal -1 0 0
    outer loop
      vertex 5 21.1648 0
      vertex 5 30.2 2
      vertex 5 30.2 0
    endloop
  endfacet
  facet normal -1 -0 0
    outer loop
      vertex 5 30.2 2
      vertex 5 21.1648 0
      vertex 5 21.1648 2
    endloop
  endfacet
  facet normal 0 0 1
    outer loop
      vertex 15 33 2
      vertex 11.25 27.6651 2
      vertex 12.5 25.5 2
    endloop
  endfacet
  facet normal 0 0 1
    outer loop
      vertex 12.6929 33 2
      vertex 8.75 27.6651 2
      vertex 11.25 27.6651 2
    endloop
  endfacet
  facet normal 0 0 1
    outer loop
      vertex 8.75 27.6651 2
      vertex 5 30.2 2
      vertex 7.5 25.5 2
    endloop
  endfacet
  facet normal -0 0 1
    outer loop
      vertex 5 30.2 2
      vertex 8.75 27.6651 2
      vertex 12.6929 33 2
    endloop
  endfacet
  facet normal -0 0 1
    outer loop
      vertex 12.5 25.5 2
      vertex 15 18 2
      vertex 15 33 2
    endloop
  endfacet
  facet normal 0 0 1
    outer loop
      vertex 11.25 27.6651 2
      vertex 15 33 2
      vertex 12.6929 33 2
    endloop
  endfacet
  facet normal -0 0 1
    outer loop
      vertex 11.25 23.3349 2
      vertex 15 18 2
      vertex 12.5 25.5 2
    endloop
  endfacet
  facet normal 0 0 1
    outer loop
      vertex 15 18 2
      vertex 11.25 23.3349 2
      vertex 13.6952 18 2
    endloop
  endfacet
  facet normal -0 0 1
    outer loop
      vertex 8.75 23.3349 2
      vertex 13.6952 18 2
      vertex 11.25 23.3349 2
    endloop
  endfacet
  facet normal 0 0 1
    outer loop
      vertex 8.75 23.3349 2
      vertex 5 21.1648 2
      vertex 13.6952 18 2
    endloop
  endfacet
  facet normal 0 0 1
    outer loop
      vertex 7.5 25.5 2
      vertex 5 21.1648 2
      vertex 8.75 23.3349 2
    endloop
  endfacet
  facet normal 0 0 1
    outer loop
      vertex 5 21.1648 2
      vertex 7.5 25.5 2
      vertex 5 30.2 2
    endloop
  endfacet
  facet normal -1 0 0
    outer loop
      vertex 15 7 0
      vertex 15 18 2
      vertex 15 18 0
    endloop
  endfacet
  facet normal -1 -0 0
    outer loop
      vertex 15 18 2
      vertex 15 7 0
      vertex 15 7 2
    endloop
  endfacet
  facet normal -1 0 0
    outer loop
      vertex 15 33 0
      vertex 15 44 2
      vertex 15 44 0
    endloop
  endfacet
  facet normal -1 -0 0
    outer loop
      vertex 15 44 2
      vertex 15 33 0
      vertex 15 33 2
    endloop
  endfacet
  facet normal 0 1 -0
    outer loop
      vertex 15 33 0
      vertex 12.6929 33 2
      vertex 15 33 2
    endloop
  endfacet
  facet normal 0 1 0
    outer loop
      vertex 12.6929 33 2
      vertex 15 33 0
      vertex 12.6929 33 0
    endloop
  endfacet
  facet normal 0 0 -1
    outer loop
      vertex 17 22 0
      vertex 12.5 25.5 0
      vertex 17 29 0
    endloop
  endfacet
  facet normal 0 0 -1
    outer loop
      vertex 11.25 27.6651 0
      vertex 17 29 0
      vertex 12.5 25.5 0
    endloop
  endfacet
  facet normal 0 -0 -1
    outer loop
      vertex 12.6929 33 0
      vertex 17 29 0
      vertex 11.25 27.6651 0
    endloop
  endfacet
  facet normal 0 0 -1
    outer loop
      vertex 13.6952 18 0
      vertex 11.25 23.3349 0
      vertex 12.5 25.5 0
    endloop
  endfacet
  facet normal 0 0 -1
    outer loop
      vertex 13.6952 18 0
      vertex 8.75 23.3349 0
      vertex 11.25 23.3349 0
    endloop
  endfacet
  facet normal -0 0 -1
    outer loop
      vertex 8.75 23.3349 0
      vertex 5 21.1648 0
      vertex 7.5 25.5 0
    endloop
  endfacet
  facet normal 0 0 -1
    outer loop
      vertex 5 21.1648 0
      vertex 8.75 23.3349 0
      vertex 13.6952 18 0
    endloop
  endfacet
  facet normal 0 0 -1
    outer loop
      vertex 17 29 0
      vertex 12.6929 33 0
      vertex 15 33 0
    endloop
  endfacet
  facet normal 0 0 -1
    outer loop
      vertex 8.75 27.6651 0
      vertex 12.6929 33 0
      vertex 11.25 27.6651 0
    endloop
  endfacet
  facet normal 0 0 -1
    outer loop
      vertex 8.75 27.6651 0
      vertex 5 30.2 0
      vertex 12.6929 33 0
    endloop
  endfacet
  facet normal 0 0 -1
    outer loop
      vertex 7.5 25.5 0
      vertex 5 30.2 0
      vertex 8.75 27.6651 0
    endloop
  endfacet
  facet normal 0 0 -1
    outer loop
      vertex 5 30.2 0
      vertex 7.5 25.5 0
      vertex 5 21.1648 0
    endloop
  endfacet
  facet normal 0 0 -1
    outer loop
      vertex 57 22 0
      vertex 66 18 0
      vertex 66 7 0
    endloop
  endfacet
  facet normal 0 0 -1
    outer loop
      vertex 66 18 0
      vertex 64 22 0
      vertex 66 33 0
    endloop
  endfacet
  facet normal 0 0 -1
    outer loop
      vertex 64 29 0
      vertex 66 33 0
      vertex 64 22 0
    endloop
  endfacet
  facet normal 0 0 -1
    outer loop
      vertex 49.0355 16.9645 0
      vertex 66 7 0
      vertex 59 0 0
    endloop
  endfacet
  facet normal 0 0 -1
    outer loop
      vertex 66 18 0
      vertex 57 22 0
      vertex 64 22 0
    endloop
  endfacet
  facet normal -0 0 -1
    outer loop
      vertex 57 22 0
      vertex 50.5 20.5 0
      vertex 57 29 0
    endloop
  endfacet
  facet normal 0 0 -1
    outer loop
      vertex 66 7 0
      vertex 49.0355 16.9645 0
      vertex 57 22 0
    endloop
  endfacet
  facet normal 0 0 -1
    outer loop
      vertex 57 22 0
      vertex 50.1194 18.5866 0
      vertex 50.5 20.5 0
    endloop
  endfacet
  facet normal 0 0 -1
    outer loop
      vertex 57 22 0
      vertex 49.0355 16.9645 0
      vertex 50.1194 18.5866 0
    endloop
  endfacet
  facet normal 0 0 -1
    outer loop
      vertex 59 0 0
      vertex 47.4134 15.8806 0
      vertex 49.0355 16.9645 0
    endloop
  endfacet
  facet normal 0 0 -1
    outer loop
      vertex 59 0 0
      vertex 45.5 15.5 0
      vertex 47.4134 15.8806 0
    endloop
  endfacet
  facet normal 0 0 -1
    outer loop
      vertex 59 0 0
      vertex 35.5 15.5 0
      vertex 45.5 15.5 0
    endloop
  endfacet
  facet normal 0 0 -1
    outer loop
      vertex 22 0 0
      vertex 35.5 15.5 0
      vertex 59 0 0
    endloop
  endfacet
  facet normal 0 0 -1
    outer loop
      vertex 30.5 20.5 0
      vertex 24 22 0
      vertex 30.5 30.5 0
    endloop
  endfacet
  facet normal 0 0 -1
    outer loop
      vertex 30.8806 18.5866 0
      vertex 24 22 0
      vertex 30.5 20.5 0
    endloop
  endfacet
  facet normal 0 0 -1
    outer loop
      vertex 31.9645 16.9645 0
      vertex 24 22 0
      vertex 30.8806 18.5866 0
    endloop
  endfacet
  facet normal 0 0 -1
    outer loop
      vertex 22 0 0
      vertex 31.9645 16.9645 0
      vertex 33.5866 15.8806 0
    endloop
  endfacet
  facet normal -0 0 -1
    outer loop
      vertex 35.5 15.5 0
      vertex 22 0 0
      vertex 33.5866 15.8806 0
    endloop
  endfacet
  facet normal 0 0 -1
    outer loop
      vertex 31.9645 16.9645 0
      vertex 22 0 0
      vertex 15 7 0
    endloop
  endfacet
  facet normal -0 0 -1
    outer loop
      vertex 31.9645 16.9645 0
      vertex 15 7 0
      vertex 24 22 0
    endloop
  endfacet
  facet normal -0 0 -1
    outer loop
      vertex 24 22 0
      vertex 15 18 0
      vertex 17 22 0
    endloop
  endfacet
  facet normal 0 0 -1
    outer loop
      vertex 24 22 0
      vertex 15 7 0
      vertex 15 18 0
    endloop
  endfacet
  facet normal 0 0 -1
    outer loop
      vertex 57 29 0
      vertex 66 33 0
      vertex 64 29 0
    endloop
  endfacet
  facet normal -0 0 -1
    outer loop
      vertex 66 33 0
      vertex 57 29 0
      vertex 66 44 0
    endloop
  endfacet
  facet normal 0 0 -1
    outer loop
      vertex 49.0355 34.0355 0
      vertex 66 44 0
      vertex 57 29 0
    endloop
  endfacet
  facet normal 0 0 -1
    outer loop
      vertex 50.5 30.5 0
      vertex 57 29 0
      vertex 50.5 20.5 0
    endloop
  endfacet
  facet normal 0 0 -1
    outer loop
      vertex 50.1194 32.4134 0
      vertex 57 29 0
      vertex 50.5 30.5 0
    endloop
  endfacet
  facet normal 0 0 -1
    outer loop
      vertex 49.0355 34.0355 0
      vertex 57 29 0
      vertex 50.1194 32.4134 0
    endloop
  endfacet
  facet normal -0 0 -1
    outer loop
      vertex 66 44 0
      vertex 49.0355 34.0355 0
      vertex 59 51 0
    endloop
  endfacet
  facet normal 0 0 -1
    outer loop
      vertex 47.4134 35.1194 0
      vertex 59 51 0
      vertex 49.0355 34.0355 0
    endloop
  endfacet
  facet normal 0 0 -1
    outer loop
      vertex 45.5 35.5 0
      vertex 59 51 0
      vertex 47.4134 35.1194 0
    endloop
  endfacet
  facet normal 0 0 -1
    outer loop
      vertex 35.5 35.5 0
      vertex 59 51 0
      vertex 45.5 35.5 0
    endloop
  endfacet
  facet normal 0 0 -1
    outer loop
      vertex 22 51 0
      vertex 35.5 35.5 0
      vertex 33.5866 35.1194 0
    endloop
  endfacet
  facet normal 0 0 -1
    outer loop
      vertex 24 29 0
      vertex 30.5 30.5 0
      vertex 24 22 0
    endloop
  endfacet
  facet normal -0 0 -1
    outer loop
      vertex 30.5 30.5 0
      vertex 24 29 0
      vertex 30.8806 32.4134 0
    endloop
  endfacet
  facet normal 0 0 -1
    outer loop
      vertex 24 29 0
      vertex 31.9645 34.0355 0
      vertex 30.8806 32.4134 0
    endloop
  endfacet
  facet normal 0 0 -1
    outer loop
      vertex 15 44 0
      vertex 31.9645 34.0355 0
      vertex 24 29 0
    endloop
  endfacet
  facet normal 0 0 -1
    outer loop
      vertex 35.5 35.5 0
      vertex 22 51 0
      vertex 59 51 0
    endloop
  endfacet
  facet normal 0 -0 -1
    outer loop
      vertex 22 51 0
      vertex 31.9645 34.0355 0
      vertex 15 44 0
    endloop
  endfacet
  facet normal 0 0 -1
    outer loop
      vertex 15 33 0
      vertex 24 29 0
      vertex 17 29 0
    endloop
  endfacet
  facet normal 0 0 -1
    outer loop
      vertex 13.6952 18 0
      vertex 17 22 0
      vertex 15 18 0
    endloop
  endfacet
  facet normal 0 0 -1
    outer loop
      vertex 12.5 25.5 0
      vertex 17 22 0
      vertex 13.6952 18 0
    endloop
  endfacet
  facet normal 0 0 -1
    outer loop
      vertex 15 44 0
      vertex 24 29 0
      vertex 15 33 0
    endloop
  endfacet
  facet normal 0 0 -1
    outer loop
      vertex 31.9645 34.0355 0
      vertex 22 51 0
      vertex 33.5866 35.1194 0
    endloop
  endfacet
  facet normal 0 0 -1
    outer loop
      vertex 76 20.8 0
      vertex 73.5 25.5 0
      vertex 76 29.8352 0
    endloop
  endfacet
  facet normal 0 0 -1
    outer loop
      vertex 76 20.8 0
      vertex 72.25 23.3349 0
      vertex 73.5 25.5 0
    endloop
  endfacet
  facet normal 0 0 -1
    outer loop
      vertex 68.3071 18 0
      vertex 72.25 23.3349 0
      vertex 76 20.8 0
    endloop
  endfacet
  facet normal 0 0 -1
    outer loop
      vertex 66 18 0
      vertex 69.75 23.3349 0
      vertex 68.3071 18 0
    endloop
  endfacet
  facet normal -0 0 -1
    outer loop
      vertex 72.25 23.3349 0
      vertex 68.3071 18 0
      vertex 69.75 23.3349 0
    endloop
  endfacet
  facet normal 0 0 -1
    outer loop
      vertex 72.25 27.6651 0
      vertex 76 29.8352 0
      vertex 73.5 25.5 0
    endloop
  endfacet
  facet normal 0 0 -1
    outer loop
      vertex 67.3048 33 0
      vertex 72.25 27.6651 0
      vertex 69.75 27.6651 0
    endloop
  endfacet
  facet normal 0 0 -1
    outer loop
      vertex 72.25 27.6651 0
      vertex 67.3048 33 0
      vertex 76 29.8352 0
    endloop
  endfacet
  facet normal 0 0 -1
    outer loop
      vertex 66 33 0
      vertex 69.75 27.6651 0
      vertex 68.5 25.5 0
    endloop
  endfacet
  facet normal -0 0 -1
    outer loop
      vertex 69.75 23.3349 0
      vertex 66 18 0
      vertex 68.5 25.5 0
    endloop
  endfacet
  facet normal 0 0 -1
    outer loop
      vertex 66 33 0
      vertex 68.5 25.5 0
      vertex 66 18 0
    endloop
  endfacet
  facet normal 0 0 -1
    outer loop
      vertex 69.75 27.6651 0
      vertex 66 33 0
      vertex 67.3048 33 0
    endloop
  endfacet
  facet normal 0 -1 0
    outer loop
      vertex 13.6952 18 0
      vertex 15 18 2
      vertex 13.6952 18 2
    endloop
  endfacet
  facet normal 0 -1 -0
    outer loop
      vertex 15 18 2
      vertex 13.6952 18 0
      vertex 15 18 0
    endloop
  endfacet
  facet normal -0.866025 -0.5 0
    outer loop
      vertex 12.5 25.5 0
      vertex 11.25 27.6651 2
      vertex 11.25 27.6651 0
    endloop
  endfacet
  facet normal -0.866025 -0.5 0
    outer loop
      vertex 11.25 27.6651 2
      vertex 12.5 25.5 0
      vertex 12.5 25.5 2
    endloop
  endfacet
  facet normal 0.866026 0.5 0
    outer loop
      vertex 8.75 23.3349 2
      vertex 7.5 25.5 0
      vertex 7.5 25.5 2
    endloop
  endfacet
  facet normal 0.866026 0.5 0
    outer loop
      vertex 7.5 25.5 0
      vertex 8.75 23.3349 2
      vertex 8.75 23.3349 0
    endloop
  endfacet
  facet normal 0 -1 0
    outer loop
      vertex 8.75 27.6651 0
      vertex 11.25 27.6651 2
      vertex 8.75 27.6651 2
    endloop
  endfacet
  facet normal 0 -1 -0
    outer loop
      vertex 11.25 27.6651 2
      vertex 8.75 27.6651 0
      vertex 11.25 27.6651 0
    endloop
  endfacet
  facet normal 0 1 -0
    outer loop
      vertex 11.25 23.3349 0
      vertex 8.75 23.3349 2
      vertex 11.25 23.3349 2
    endloop
  endfacet
  facet normal 0 1 0
    outer loop
      vertex 8.75 23.3349 2
      vertex 11.25 23.3349 0
      vertex 8.75 23.3349 0
    endloop
  endfacet
  facet normal 0.866025 -0.5 0
    outer loop
      vertex 7.5 25.5 2
      vertex 8.75 27.6651 0
      vertex 8.75 27.6651 2
    endloop
  endfacet
  facet normal 0.866025 -0.5 0
    outer loop
      vertex 8.75 27.6651 0
      vertex 7.5 25.5 2
      vertex 7.5 25.5 0
    endloop
  endfacet
  facet normal -0.866025 0.5 0
    outer loop
      vertex 11.25 23.3349 0
      vertex 12.5 25.5 2
      vertex 12.5 25.5 0
    endloop
  endfacet
  facet normal -0.866025 0.5 0
    outer loop
      vertex 12.5 25.5 2
      vertex 11.25 23.3349 0
      vertex 11.25 23.3349 2
    endloop
  endfacet
  facet normal -0.34202 -0.939693 0
    outer loop
      vertex 5 21.1648 0
      vertex 13.6952 18 2
      vertex 5 21.1648 2
    endloop
  endfacet
  facet normal -0.34202 -0.939693 -0
    outer loop
      vertex 13.6952 18 2
      vertex 5 21.1648 0
      vertex 13.6952 18 0
    endloop
  endfacet
  facet normal -0.34202 0.939693 0
    outer loop
      vertex 12.6929 33 0
      vertex 5 30.2 2
      vertex 12.6929 33 2
    endloop
  endfacet
  facet normal -0.34202 0.939693 0
    outer loop
      vertex 5 30.2 2
      vertex 12.6929 33 0
      vertex 5 30.2 0
    endloop
  endfacet
  facet normal 1 -0 0
    outer loop
      vertex 76 20.8 2
      vertex 76 29.8352 0
      vertex 76 29.8352 2
    endloop
  endfacet
  facet normal 1 0 0
    outer loop
      vertex 76 29.8352 0
      vertex 76 20.8 2
      vertex 76 20.8 0
    endloop
  endfacet
  facet normal 0 0 1
    outer loop
      vertex 76 29.8352 2
      vertex 73.5 25.5 2
      vertex 76 20.8 2
    endloop
  endfacet
  facet normal 0 0 1
    outer loop
      vertex 76 29.8352 2
      vertex 72.25 27.6651 2
      vertex 73.5 25.5 2
    endloop
  endfacet
  facet normal 0 0 1
    outer loop
      vertex 67.3048 33 2
      vertex 72.25 27.6651 2
      vertex 76 29.8352 2
    endloop
  endfacet
  facet normal 0 0 1
    outer loop
      vertex 72.25 27.6651 2
      vertex 67.3048 33 2
      vertex 69.75 27.6651 2
    endloop
  endfacet
  facet normal -0 0 1
    outer loop
      vertex 66 33 2
      vertex 69.75 27.6651 2
      vertex 67.3048 33 2
    endloop
  endfacet
  facet normal 0 0 1
    outer loop
      vertex 69.75 27.6651 2
      vertex 66 33 2
      vertex 68.5 25.5 2
    endloop
  endfacet
  facet normal 0 0 1
    outer loop
      vertex 68.5 25.5 2
      vertex 66 33 2
      vertex 66 18 2
    endloop
  endfacet
  facet normal 0 0 1
    outer loop
      vertex 68.5 25.5 2
      vertex 66 18 2
      vertex 68.3071 18 2
    endloop
  endfacet
  facet normal -0 0 1
    outer loop
      vertex 72.25 23.3349 2
      vertex 76 20.8 2
      vertex 73.5 25.5 2
    endloop
  endfacet
  facet normal 0 0 1
    outer loop
      vertex 68.3071 18 2
      vertex 72.25 23.3349 2
      vertex 69.75 23.3349 2
    endloop
  endfacet
  facet normal 0 0 1
    outer loop
      vertex 72.25 23.3349 2
      vertex 68.3071 18 2
      vertex 76 20.8 2
    endloop
  endfacet
  facet normal 0 0 1
    outer loop
      vertex 68.3071 18 2
      vertex 69.75 23.3349 2
      vertex 68.5 25.5 2
    endloop
  endfacet
  facet normal 0 -1 0
    outer loop
      vertex 66 18 0
      vertex 68.3071 18 2
      vertex 66 18 2
    endloop
  endfacet
  facet normal 0 -1 -0
    outer loop
      vertex 68.3071 18 2
      vertex 66 18 0
      vertex 68.3071 18 0
    endloop
  endfacet
  facet normal 0 1 -0
    outer loop
      vertex 67.3048 33 0
      vertex 66 33 2
      vertex 67.3048 33 2
    endloop
  endfacet
  facet normal 0 1 0
    outer loop
      vertex 66 33 2
      vertex 67.3048 33 0
      vertex 66 33 0
    endloop
  endfacet
  facet normal 0.866025 0.5 0
    outer loop
      vertex 69.75 23.3349 2
      vertex 68.5 25.5 0
      vertex 68.5 25.5 2
    endloop
  endfacet
  facet normal 0.866025 0.5 0
    outer loop
      vertex 68.5 25.5 0
      vertex 69.75 23.3349 2
      vertex 69.75 23.3349 0
    endloop
  endfacet
  facet normal -0.866025 -0.5 0
    outer loop
      vertex 73.5 25.5 0
      vertex 72.25 27.6651 2
      vertex 72.25 27.6651 0
    endloop
  endfacet
  facet normal -0.866025 -0.5 0
    outer loop
      vertex 72.25 27.6651 2
      vertex 73.5 25.5 0
      vertex 73.5 25.5 2
    endloop
  endfacet
  facet normal 0 1 -0
    outer loop
      vertex 72.25 23.3349 0
      vertex 69.75 23.3349 2
      vertex 72.25 23.3349 2
    endloop
  endfacet
  facet normal 0 1 0
    outer loop
      vertex 69.75 23.3349 2
      vertex 72.25 23.3349 0
      vertex 69.75 23.3349 0
    endloop
  endfacet
  facet normal 0 -1 0
    outer loop
      vertex 69.75 27.6651 0
      vertex 72.25 27.6651 2
      vertex 69.75 27.6651 2
    endloop
  endfacet
  facet normal 0 -1 -0
    outer loop
      vertex 72.25 27.6651 2
      vertex 69.75 27.6651 0
      vertex 72.25 27.6651 0
    endloop
  endfacet
  facet normal -0.866025 0.5 0
    outer loop
      vertex 72.25 23.3349 0
      vertex 73.5 25.5 2
      vertex 73.5 25.5 0
    endloop
  endfacet
  facet normal -0.866025 0.5 0
    outer loop
      vertex 73.5 25.5 2
      vertex 72.25 23.3349 0
      vertex 72.25 23.3349 2
    endloop
  endfacet
  facet normal 0.866025 -0.5 0
    outer loop
      vertex 68.5 25.5 2
      vertex 69.75 27.6651 0
      vertex 69.75 27.6651 2
    endloop
  endfacet
  facet normal 0.866025 -0.5 0
    outer loop
      vertex 69.75 27.6651 0
      vertex 68.5 25.5 2
      vertex 68.5 25.5 0
    endloop
  endfacet
  facet normal 0.34202 0.939693 -0
    outer loop
      vertex 76 29.8352 0
      vertex 67.3048 33 2
      vertex 76 29.8352 2
    endloop
  endfacet
  facet normal 0.34202 0.939693 0
    outer loop
      vertex 67.3048 33 2
      vertex 76 29.8352 0
      vertex 67.3048 33 0
    endloop
  endfacet
  facet normal 0.34202 -0.939693 0
    outer loop
      vertex 68.3071 18 0
      vertex 76 20.8 2
      vertex 68.3071 18 2
    endloop
  endfacet
  facet normal 0.34202 -0.939693 0
    outer loop
      vertex 76 20.8 2
      vertex 68.3071 18 0
      vertex 76 20.8 0
    endloop
  endfacet
  facet normal -0.707107 0.707107 0
    outer loop
      vertex 15 44 0
      vertex 22 51 2
      vertex 22 51 0
    endloop
  endfacet
  facet normal -0.707107 0.707107 0
    outer loop
      vertex 22 51 2
      vertex 15 44 0
      vertex 15 44 2
    endloop
  endfacet
  facet normal -0.145366 0.145366 0.97864
    outer loop
      vertex 22 51 2
      vertex 15 44 2
      vertex 31.9645 34.0355 6
    endloop
  endfacet
  facet normal -0.249878 0 0.968277
    outer loop
      vertex 30.5 30.5 6
      vertex 24 29 4.32258
      vertex 30.5 20.5 6
    endloop
  endfacet
  facet normal -0.249878 2.28776e-08 0.968277
    outer loop
      vertex 15 44 2
      vertex 24 29 4.32258
      vertex 30.5 30.5 6
    endloop
  endfacet
  facet normal -0.249878 -1.64897e-08 0.968277
    outer loop
      vertex 24 29 4.32258
      vertex 15 33 2
      vertex 17 29 2.51613
    endloop
  endfacet
  facet normal -0.249878 0 0.968277
    outer loop
      vertex 24 29 4.32258
      vertex 15 44 2
      vertex 15 33 2
    endloop
  endfacet
  facet normal -0.249878 0 0.968277
    outer loop
      vertex 24 22 4.32258
      vertex 30.5 20.5 6
      vertex 24 29 4.32258
    endloop
  endfacet
  facet normal -0.249878 1.64897e-08 0.968277
    outer loop
      vertex 15 18 2
      vertex 24 22 4.32258
      vertex 17 22 2.51613
    endloop
  endfacet
  facet normal -0.249878 0 0.968277
    outer loop
      vertex 17 29 2.51613
      vertex 15 33 2
      vertex 17 22 2.51613
    endloop
  endfacet
  facet normal -0.249878 0 0.968277
    outer loop
      vertex 15 18 2
      vertex 17 22 2.51613
      vertex 15 33 2
    endloop
  endfacet
  facet normal -0.249878 0 0.968277
    outer loop
      vertex 15 7 2
      vertex 24 22 4.32258
      vertex 15 18 2
    endloop
  endfacet
  facet normal -0.249878 -2.28776e-08 0.968277
    outer loop
      vertex 24 22 4.32258
      vertex 15 7 2
      vertex 30.5 20.5 6
    endloop
  endfacet
  facet normal 0.145366 0.145366 0.97864
    outer loop
      vertex 59 51 2
      vertex 49.0355 34.0355 6
      vertex 66 44 2
    endloop
  endfacet
  facet normal 0 0.249878 0.968277
    outer loop
      vertex 59 51 2
      vertex 35.5 35.5 6
      vertex 45.5 35.5 6
    endloop
  endfacet
  facet normal 0 0.249878 0.968277
    outer loop
      vertex 35.5 35.5 6
      vertex 59 51 2
      vertex 22 51 2
    endloop
  endfacet
  facet normal 0 -1 0
    outer loop
      vertex 22 0 0
      vertex 59 0 2
      vertex 22 0 2
    endloop
  endfacet
  facet normal 0 -1 -0
    outer loop
      vertex 59 0 2
      vertex 22 0 0
      vertex 59 0 0
    endloop
  endfacet
  facet normal -0.165924 -0.110867 0.979887
    outer loop
      vertex 30.8806 18.5866 6
      vertex 15 7 2
      vertex 31.9645 16.9645 6
    endloop
  endfacet
  facet normal -0.110867 0.165924 0.979887
    outer loop
      vertex 33.5866 35.1194 6
      vertex 22 51 2
      vertex 31.9645 34.0355 6
    endloop
  endfacet
  facet normal 0.707107 -0.707107 0
    outer loop
      vertex 59 0 2
      vertex 66 7 0
      vertex 66 7 2
    endloop
  endfacet
  facet normal 0.707107 -0.707107 0
    outer loop
      vertex 66 7 0
      vertex 59 0 2
      vertex 59 0 0
    endloop
  endfacet
  facet normal 0 1 -0
    outer loop
      vertex 59 51 0
      vertex 22 51 2
      vertex 59 51 2
    endloop
  endfacet
  facet normal 0 1 0
    outer loop
      vertex 22 51 2
      vertex 59 51 0
      vertex 22 51 0
    endloop
  endfacet
  facet normal -0.707107 -0.707107 0
    outer loop
      vertex 22 0 0
      vertex 15 7 2
      vertex 15 7 0
    endloop
  endfacet
  facet normal -0.707107 -0.707107 0
    outer loop
      vertex 15 7 2
      vertex 22 0 0
      vertex 22 0 2
    endloop
  endfacet
  facet normal -0.145366 -0.145366 0.97864
    outer loop
      vertex 31.9645 16.9645 6
      vertex 15 7 2
      vertex 22 0 2
    endloop
  endfacet
  facet normal 0.145366 -0.145366 0.97864
    outer loop
      vertex 66 7 2
      vertex 49.0355 16.9645 6
      vertex 59 0 2
    endloop
  endfacet
  facet normal 0.165924 -0.110867 0.979887
    outer loop
      vertex 50.1194 18.5866 6
      vertex 49.0355 16.9645 6
      vertex 66 7 2
    endloop
  endfacet
  facet normal -0.110867 -0.165924 0.979887
    outer loop
      vertex 31.9645 16.9645 6
      vertex 22 0 2
      vertex 33.5866 15.8806 6
    endloop
  endfacet
  facet normal 0.707107 0.707107 0
    outer loop
      vertex 66 44 2
      vertex 59 51 0
      vertex 59 51 2
    endloop
  endfacet
  facet normal 0.707107 0.707107 0
    outer loop
      vertex 59 51 0
      vertex 66 44 2
      vertex 66 44 0
    endloop
  endfacet
  facet normal -0.214627 0.0426918 0.975763
    outer loop
      vertex 30.8806 32.4134 6
      vertex 15 44 2
      vertex 30.5 30.5 6
    endloop
  endfacet
  facet normal -0.042692 0.214626 0.975763
    outer loop
      vertex 35.5 35.5 6
      vertex 22 51 2
      vertex 33.5866 35.1194 6
    endloop
  endfacet
  facet normal 1 -0 0
    outer loop
      vertex 66 33 2
      vertex 66 44 0
      vertex 66 44 2
    endloop
  endfacet
  facet normal 1 0 0
    outer loop
      vertex 66 44 0
      vertex 66 33 2
      vertex 66 33 0
    endloop
  endfacet
  facet normal 1 -0 0
    outer loop
      vertex 66 7 2
      vertex 66 18 0
      vertex 66 18 2
    endloop
  endfacet
  facet normal 1 0 0
    outer loop
      vertex 66 18 0
      vertex 66 7 2
      vertex 66 7 0
    endloop
  endfacet
  facet normal 0.165924 0.110867 0.979887
    outer loop
      vertex 66 44 2
      vertex 49.0355 34.0355 6
      vertex 50.1194 32.4134 6
    endloop
  endfacet
  facet normal 0.249878 0 0.968277
    outer loop
      vertex 57 29 4.32258
      vertex 66 33 2
      vertex 66 44 2
    endloop
  endfacet
  facet normal 0.249878 0 0.968277
    outer loop
      vertex 66 33 2
      vertex 64 29 2.51613
      vertex 66 18 2
    endloop
  endfacet
  facet normal 0.249878 -0 0.968277
    outer loop
      vertex 64 22 2.51613
      vertex 66 18 2
      vertex 64 29 2.51613
    endloop
  endfacet
  facet normal 0.249878 -1.64897e-08 0.968277
    outer loop
      vertex 66 33 2
      vertex 57 29 4.32258
      vertex 64 29 2.51613
    endloop
  endfacet
  facet normal 0.249878 0 0.968277
    outer loop
      vertex 57 29 4.32258
      vertex 50.5 30.5 6
      vertex 57 22 4.32258
    endloop
  endfacet
  facet normal 0.249878 2.28776e-08 0.968277
    outer loop
      vertex 50.5 30.5 6
      vertex 57 29 4.32258
      vertex 66 44 2
    endloop
  endfacet
  facet normal 0.249878 1.64897e-08 0.968277
    outer loop
      vertex 57 22 4.32258
      vertex 66 18 2
      vertex 64 22 2.51613
    endloop
  endfacet
  facet normal 0.249878 0 0.968277
    outer loop
      vertex 66 18 2
      vertex 57 22 4.32258
      vertex 66 7 2
    endloop
  endfacet
  facet normal 0.249878 -0 0.968277
    outer loop
      vertex 50.5 20.5 6
      vertex 57 22 4.32258
      vertex 50.5 30.5 6
    endloop
  endfacet
  facet normal 0.249878 -2.28776e-08 0.968277
    outer loop
      vertex 57 22 4.32258
      vertex 50.5 20.5 6
      vertex 66 7 2
    endloop
  endfacet
  facet normal 0 -0.249878 0.968277
    outer loop
      vertex 35.5 15.5 6
      vertex 59 0 2
      vertex 45.5 15.5 6
    endloop
  endfacet
  facet normal 0 -0.249878 0.968277
    outer loop
      vertex 59 0 2
      vertex 35.5 15.5 6
      vertex 22 0 2
    endloop
  endfacet
  facet normal -0.214627 -0.0426918 0.975763
    outer loop
      vertex 30.5 20.5 6
      vertex 15 7 2
      vertex 30.8806 18.5866 6
    endloop
  endfacet
  facet normal -0.165924 0.110867 0.979887
    outer loop
      vertex 31.9645 34.0355 6
      vertex 15 44 2
      vertex 30.8806 32.4134 6
    endloop
  endfacet
  facet normal 0.110867 0.165924 0.979887
    outer loop
      vertex 59 51 2
      vertex 47.4134 35.1194 6
      vertex 49.0355 34.0355 6
    endloop
  endfacet
  facet normal 0.042692 0.214626 0.975763
    outer loop
      vertex 59 51 2
      vertex 45.5 35.5 6
      vertex 47.4134 35.1194 6
    endloop
  endfacet
  facet normal 0.214626 0.042692 0.975763
    outer loop
      vertex 66 44 2
      vertex 50.1194 32.4134 6
      vertex 50.5 30.5 6
    endloop
  endfacet
  facet normal 0.214626 -0.042692 0.975763
    outer loop
      vertex 50.5 20.5 6
      vertex 50.1194 18.5866 6
      vertex 66 7 2
    endloop
  endfacet
  facet normal 0.0426918 -0.214627 0.975763
    outer loop
      vertex 47.4134 15.8806 6
      vertex 45.5 15.5 6
      vertex 59 0 2
    endloop
  endfacet
  facet normal 0.110867 -0.165924 0.979887
    outer loop
      vertex 49.0355 16.9645 6
      vertex 47.4134 15.8806 6
      vertex 59 0 2
    endloop
  endfacet
  facet normal -0.0426918 -0.214627 0.975763
    outer loop
      vertex 33.5866 15.8806 6
      vertex 22 0 2
      vertex 35.5 15.5 6
    endloop
  endfacet
  facet normal 1 -0 0
    outer loop
      vertex 30.5 20.5 6
      vertex 30.5 30.5 0
      vertex 30.5 30.5 6
    endloop
  endfacet
  facet normal 1 0 0
    outer loop
      vertex 30.5 30.5 0
      vertex 30.5 20.5 6
      vertex 30.5 20.5 0
    endloop
  endfacet
  facet normal -1 0 0
    outer loop
      vertex 50.5 20.5 0
      vertex 50.5 30.5 6
      vertex 50.5 30.5 0
    endloop
  endfacet
  facet normal -1 -0 0
    outer loop
      vertex 50.5 30.5 6
      vertex 50.5 20.5 0
      vertex 50.5 20.5 6
    endloop
  endfacet
  facet normal 0 1 -0
    outer loop
      vertex 45.5 15.5 0
      vertex 35.5 15.5 6
      vertex 45.5 15.5 6
    endloop
  endfacet
  facet normal 0 1 0
    outer loop
      vertex 35.5 15.5 6
      vertex 45.5 15.5 0
      vertex 35.5 15.5 0
    endloop
  endfacet
  facet normal 0 -1 0
    outer loop
      vertex 35.5 35.5 0
      vertex 45.5 35.5 6
      vertex 35.5 35.5 6
    endloop
  endfacet
  facet normal 0 -1 -0
    outer loop
      vertex 45.5 35.5 6
      vertex 35.5 35.5 0
      vertex 45.5 35.5 0
    endloop
  endfacet
  facet normal 0.19509 0.980785 -0
    outer loop
      vertex 35.5 15.5 0
      vertex 33.5866 15.8806 6
      vertex 35.5 15.5 6
    endloop
  endfacet
  facet normal 0.19509 0.980785 0
    outer loop
      vertex 33.5866 15.8806 6
      vertex 35.5 15.5 0
      vertex 33.5866 15.8806 0
    endloop
  endfacet
  facet normal 0.831469 0.555571 0
    outer loop
      vertex 31.9645 16.9645 6
      vertex 30.8806 18.5866 0
      vertex 30.8806 18.5866 6
    endloop
  endfacet
  facet normal 0.831469 0.555571 0
    outer loop
      vertex 30.8806 18.5866 0
      vertex 31.9645 16.9645 6
      vertex 31.9645 16.9645 0
    endloop
  endfacet
  facet normal 0.980785 0.19509 0
    outer loop
      vertex 30.8806 18.5866 6
      vertex 30.5 20.5 0
      vertex 30.5 20.5 6
    endloop
  endfacet
  facet normal 0.980785 0.19509 0
    outer loop
      vertex 30.5 20.5 0
      vertex 30.8806 18.5866 6
      vertex 30.8806 18.5866 0
    endloop
  endfacet
  facet normal 0.555571 0.831469 -0
    outer loop
      vertex 33.5866 15.8806 0
      vertex 31.9645 16.9645 6
      vertex 33.5866 15.8806 6
    endloop
  endfacet
  facet normal 0.555571 0.831469 0
    outer loop
      vertex 31.9645 16.9645 6
      vertex 33.5866 15.8806 0
      vertex 31.9645 16.9645 0
    endloop
  endfacet
  facet normal 0.195091 -0.980785 0
    outer loop
      vertex 33.5866 35.1194 0
      vertex 35.5 35.5 6
      vertex 33.5866 35.1194 6
    endloop
  endfacet
  facet normal 0.195091 -0.980785 0
    outer loop
      vertex 35.5 35.5 6
      vertex 33.5866 35.1194 0
      vertex 35.5 35.5 0
    endloop
  endfacet
  facet normal 0.831469 -0.555571 0
    outer loop
      vertex 30.8806 32.4134 6
      vertex 31.9645 34.0355 0
      vertex 31.9645 34.0355 6
    endloop
  endfacet
  facet normal 0.831469 -0.555571 0
    outer loop
      vertex 31.9645 34.0355 0
      vertex 30.8806 32.4134 6
      vertex 30.8806 32.4134 0
    endloop
  endfacet
  facet normal 0.980785 -0.19509 0
    outer loop
      vertex 30.5 30.5 6
      vertex 30.8806 32.4134 0
      vertex 30.8806 32.4134 6
    endloop
  endfacet
  facet normal 0.980785 -0.19509 0
    outer loop
      vertex 30.8806 32.4134 0
      vertex 30.5 30.5 6
      vertex 30.5 30.5 0
    endloop
  endfacet
  facet normal 0.55557 -0.83147 0
    outer loop
      vertex 31.9645 34.0355 0
      vertex 33.5866 35.1194 6
      vertex 31.9645 34.0355 6
    endloop
  endfacet
  facet normal 0.55557 -0.83147 0
    outer loop
      vertex 33.5866 35.1194 6
      vertex 31.9645 34.0355 0
      vertex 33.5866 35.1194 0
    endloop
  endfacet
  facet normal -0.555571 0.831469 0
    outer loop
      vertex 49.0355 16.9645 0
      vertex 47.4134 15.8806 6
      vertex 49.0355 16.9645 6
    endloop
  endfacet
  facet normal -0.555571 0.831469 0
    outer loop
      vertex 47.4134 15.8806 6
      vertex 49.0355 16.9645 0
      vertex 47.4134 15.8806 0
    endloop
  endfacet
  facet normal -0.83147 0.55557 0
    outer loop
      vertex 49.0355 16.9645 0
      vertex 50.1194 18.5866 6
      vertex 50.1194 18.5866 0
    endloop
  endfacet
  facet normal -0.83147 0.55557 0
    outer loop
      vertex 50.1194 18.5866 6
      vertex 49.0355 16.9645 0
      vertex 49.0355 16.9645 6
    endloop
  endfacet
  facet normal -0.19509 0.980785 0
    outer loop
      vertex 47.4134 15.8806 0
      vertex 45.5 15.5 6
      vertex 47.4134 15.8806 6
    endloop
  endfacet
  facet normal -0.19509 0.980785 0
    outer loop
      vertex 45.5 15.5 6
      vertex 47.4134 15.8806 0
      vertex 45.5 15.5 0
    endloop
  endfacet
  facet normal -0.980785 0.195091 0
    outer loop
      vertex 50.1194 18.5866 0
      vertex 50.5 20.5 6
      vertex 50.5 20.5 0
    endloop
  endfacet
  facet normal -0.980785 0.195091 0
    outer loop
      vertex 50.5 20.5 6
      vertex 50.1194 18.5866 0
      vertex 50.1194 18.5866 6
    endloop
  endfacet
  facet normal -0.980785 -0.195091 0
    outer loop
      vertex 50.5 30.5 0
      vertex 50.1194 32.4134 6
      vertex 50.1194 32.4134 0
    endloop
  endfacet
  facet normal -0.980785 -0.195091 0
    outer loop
      vertex 50.1194 32.4134 6
      vertex 50.5 30.5 0
      vertex 50.5 30.5 6
    endloop
  endfacet
  facet normal -0.55557 -0.83147 0
    outer loop
      vertex 47.4134 35.1194 0
      vertex 49.0355 34.0355 6
      vertex 47.4134 35.1194 6
    endloop
  endfacet
  facet normal -0.55557 -0.83147 -0
    outer loop
      vertex 49.0355 34.0355 6
      vertex 47.4134 35.1194 0
      vertex 49.0355 34.0355 0
    endloop
  endfacet
  facet normal -0.83147 -0.55557 0
    outer loop
      vertex 50.1194 32.4134 0
      vertex 49.0355 34.0355 6
      vertex 49.0355 34.0355 0
    endloop
  endfacet
  facet normal -0.83147 -0.55557 0
    outer loop
      vertex 49.0355 34.0355 6
      vertex 50.1194 32.4134 0
      vertex 50.1194 32.4134 6
    endloop
  endfacet
  facet normal -0.195091 -0.980785 0
    outer loop
      vertex 45.5 35.5 0
      vertex 47.4134 35.1194 6
      vertex 45.5 35.5 6
    endloop
  endfacet
  facet normal -0.195091 -0.980785 -0
    outer loop
      vertex 47.4134 35.1194 6
      vertex 45.5 35.5 0
      vertex 47.4134 35.1194 0
    endloop
  endfacet
  facet normal 1 -0 0
    outer loop
      vertex 17 22 2.51613
      vertex 17 29 0
      vertex 17 29 2.51613
    endloop
  endfacet
  facet normal 1 0 0
    outer loop
      vertex 17 29 0
      vertex 17 22 2.51613
      vertex 17 22 0
    endloop
  endfacet
  facet normal -1 0 0
    outer loop
      vertex 24 22 0
      vertex 24 29 4.32258
      vertex 24 29 0
    endloop
  endfacet
  facet normal -1 -0 0
    outer loop
      vertex 24 29 4.32258
      vertex 24 22 0
      vertex 24 22 4.32258
    endloop
  endfacet
  facet normal 0 -1 0
    outer loop
      vertex 24 29 0
      vertex 17 29 2.51613
      vertex 17 29 0
    endloop
  endfacet
  facet normal 0 -1 0
    outer loop
      vertex 17 29 2.51613
      vertex 24 29 0
      vertex 24 29 4.32258
    endloop
  endfacet
  facet normal 0 1 -0
    outer loop
      vertex 24 22 0
      vertex 17 22 2.51613
      vertex 24 22 4.32258
    endloop
  endfacet
  facet normal 0 1 0
    outer loop
      vertex 17 22 2.51613
      vertex 24 22 0
      vertex 17 22 0
    endloop
  endfacet
  facet normal 1 -0 0
    outer loop
      vertex 57 22 4.32258
      vertex 57 29 0
      vertex 57 29 4.32258
    endloop
  endfacet
  facet normal 1 0 0
    outer loop
      vertex 57 29 0
      vertex 57 22 4.32258
      vertex 57 22 0
    endloop
  endfacet
  facet normal -1 0 0
    outer loop
      vertex 64 22 0
      vertex 64 29 2.51613
      vertex 64 29 0
    endloop
  endfacet
  facet normal -1 -0 0
    outer loop
      vertex 64 29 2.51613
      vertex 64 22 0
      vertex 64 22 2.51613
    endloop
  endfacet
  facet normal 0 -1 0
    outer loop
      vertex 57 29 0
      vertex 64 29 2.51613
      vertex 57 29 4.32258
    endloop
  endfacet
  facet normal 0 -1 -0
    outer loop
      vertex 64 29 2.51613
      vertex 57 29 0
      vertex 64 29 0
    endloop
  endfacet
  facet normal 0 1 0
    outer loop
      vertex 57 22 0
      vertex 64 22 2.51613
      vertex 64 22 0
    endloop
  endfacet
  facet normal 0 1 0
    outer loop
      vertex 64 22 2.51613
      vertex 57 22 0
      vertex 57 22 4.32258
    endloop
  endfacet
  facet normal 0 0 1
    outer loop
      vertex 44.5 115 5
      vertex 36.5 115 5
      vertex 44.5 113 5
    endloop
  endfacet
  facet normal 0 0 1
    outer loop
      vertex 60 113 5
      vertex 44.5 113 5
      vertex 60 112.912 5
    endloop
  endfacet
  facet normal 0 0 1
    outer loop
      vertex 60 112.912 5
      vertex 64 109 5
      vertex 63.5418 110.859 5
    endloop
  endfacet
  facet normal 0 0 1
    outer loop
      vertex 60 112.912 5
      vertex 63.5418 110.859 5
      vertex 62.2723 112.292 5
    endloop
  endfacet
  facet normal -0 0 1
    outer loop
      vertex 60 112.912 5
      vertex 62.2723 112.292 5
      vertex 60.4821 112.971 5
    endloop
  endfacet
  facet normal 0 0 1
    outer loop
      vertex 44.5 113 5
      vertex 64 109 5
      vertex 60 112.912 5
    endloop
  endfacet
  facet normal 0 0 1
    outer loop
      vertex 64 109 5
      vertex 44.5 113 5
      vertex 64 90 5
    endloop
  endfacet
  facet normal 0 0 1
    outer loop
      vertex 36.5 113 5
      vertex 44.5 113 5
      vertex 36.5 115 5
    endloop
  endfacet
  facet normal 0 0 1
    outer loop
      vertex 44.5 113 5
      vertex 36.5 113 5
      vertex 64 90 5
    endloop
  endfacet
  facet normal 0 0 1
    outer loop
      vertex 21 112.912 5
      vertex 36.5 113 5
      vertex 21 113 5
    endloop
  endfacet
  facet normal 0 0 1
    outer loop
      vertex 17.1162 109 5
      vertex 36.5 113 5
      vertex 21 112.912 5
    endloop
  endfacet
  facet normal 0 0 1
    outer loop
      vertex 18.006 111.652 5
      vertex 21 112.912 5
      vertex 19.5816 112.74 5
    endloop
  endfacet
  facet normal 0 0 1
    outer loop
      vertex 21 112.912 5
      vertex 18.006 111.652 5
      vertex 17.1162 109 5
    endloop
  endfacet
  facet normal 0 0 1
    outer loop
      vertex 17.1162 109 5
      vertex 18.006 111.652 5
      vertex 17.1162 109.957 5
    endloop
  endfacet
  facet normal 0 0 1
    outer loop
      vertex 36.5 113 5
      vertex 17.1162 109 5
      vertex 17 90 5
    endloop
  endfacet
  facet normal 0 0 1
    outer loop
      vertex 17 90 5
      vertex 17.1162 109 5
      vertex 17 109 5
    endloop
  endfacet
  facet normal 0 0 1
    outer loop
      vertex 36.5 113 5
      vertex 17 90 5
      vertex 64 90 5
    endloop
  endfacet
  facet normal 0 0 1
    outer loop
      vertex 15 95 5
      vertex 14.5 90 5
      vertex 15 90 5
    endloop
  endfacet
  facet normal 0 0 1
    outer loop
      vertex 11.25 89.6651 5
      vertex 14.5 90 5
      vertex 12.6929 95 5
    endloop
  endfacet
  facet normal -0 0 1
    outer loop
      vertex 12.6929 95 5
      vertex 14.5 90 5
      vertex 15 95 5
    endloop
  endfacet
  facet normal -0 0 1
    outer loop
      vertex 66 95 5
      vertex 66.5 90 5
      vertex 67.3048 95 5
    endloop
  endfacet
  facet normal 0 0 1
    outer loop
      vertex 66.5 90 5
      vertex 66 95 5
      vertex 66 90 5
    endloop
  endfacet
  facet normal -0 0 1
    outer loop
      vertex 8.75 85.3349 5
      vertex 10 81.3449 5
      vertex 11.25 85.3349 5
    endloop
  endfacet
  facet normal 0 0 1
    outer loop
      vertex 5 83.1648 5
      vertex 8.75 85.3349 5
      vertex 7.5 87.5 5
    endloop
  endfacet
  facet normal 0 0 1
    outer loop
      vertex 5 83.1648 5
      vertex 7.5 87.5 5
      vertex 5 92.2 5
    endloop
  endfacet
  facet normal 0 0 1
    outer loop
      vertex 8.75 85.3349 5
      vertex 5 83.1648 5
      vertex 10 81.3449 5
    endloop
  endfacet
  facet normal 0 0 1
    outer loop
      vertex 14.5 90 5
      vertex 11.25 89.6651 5
      vertex 12.5 87.5 5
    endloop
  endfacet
  facet normal 0 0 1
    outer loop
      vertex 12.6929 95 5
      vertex 8.75 89.6651 5
      vertex 11.25 89.6651 5
    endloop
  endfacet
  facet normal 0 0 1
    outer loop
      vertex 8.75 89.6651 5
      vertex 5 92.2 5
      vertex 7.5 87.5 5
    endloop
  endfacet
  facet normal -0 0 1
    outer loop
      vertex 5 92.2 5
      vertex 8.75 89.6651 5
      vertex 12.6929 95 5
    endloop
  endfacet
  facet normal 0 0 1
    outer loop
      vertex 76 91.8352 5
      vertex 73.5 87.5 5
      vertex 76 82.8 5
    endloop
  endfacet
  facet normal 0 0 1
    outer loop
      vertex 76 91.8352 5
      vertex 72.25 89.6651 5
      vertex 73.5 87.5 5
    endloop
  endfacet
  facet normal 0 0 1
    outer loop
      vertex 67.3048 95 5
      vertex 72.25 89.6651 5
      vertex 76 91.8352 5
    endloop
  endfacet
  facet normal -0 0 1
    outer loop
      vertex 66.5 90 5
      vertex 69.75 89.6651 5
      vertex 67.3048 95 5
    endloop
  endfacet
  facet normal 0 0 1
    outer loop
      vertex 72.25 89.6651 5
      vertex 67.3048 95 5
      vertex 69.75 89.6651 5
    endloop
  endfacet
  facet normal -0 0 1
    outer loop
      vertex 72.25 85.3349 5
      vertex 76 82.8 5
      vertex 73.5 87.5 5
    endloop
  endfacet
  facet normal 0 0 1
    outer loop
      vertex 72.25 85.3349 5
      vertex 71 80.9801 5
      vertex 76 82.8 5
    endloop
  endfacet
  facet normal -0 0 1
    outer loop
      vertex 69.75 85.3349 5
      vertex 71 80.9801 5
      vertex 72.25 85.3349 5
    endloop
  endfacet
  facet normal 0 0 1
    outer loop
      vertex 68.5 87.5 5
      vertex 71 80.9801 5
      vertex 69.75 85.3349 5
    endloop
  endfacet
  facet normal 0 0 1
    outer loop
      vertex 66.5 90 5
      vertex 71 80.9801 5
      vertex 68.5 87.5 5
    endloop
  endfacet
  facet normal 0 0 1
    outer loop
      vertex 69.75 89.6651 5
      vertex 66.5 90 5
      vertex 68.5 87.5 5
    endloop
  endfacet
  facet normal 0 0 1
    outer loop
      vertex 71 80.9801 5
      vertex 66.5 90 5
      vertex 66.5 64 5
    endloop
  endfacet
  facet normal 0 0 1
    outer loop
      vertex 71 80.9801 5
      vertex 66.5 64 5
      vertex 71 60 5
    endloop
  endfacet
  facet normal -0 0 1
    outer loop
      vertex 14.5 64 5
      vertex 71 60 5
      vertex 66.5 64 5
    endloop
  endfacet
  facet normal 0 0 1
    outer loop
      vertex 10 81.3449 5
      vertex 14.5 90 5
      vertex 12.5 87.5 5
    endloop
  endfacet
  facet normal 0 0 1
    outer loop
      vertex 10 81.3449 5
      vertex 12.5 87.5 5
      vertex 11.25 85.3349 5
    endloop
  endfacet
  facet normal 0 0 1
    outer loop
      vertex 14.5 90 5
      vertex 10 81.3449 5
      vertex 14.5 64 5
    endloop
  endfacet
  facet normal 0 0 1
    outer loop
      vertex 14.5 64 5
      vertex 10 60 5
      vertex 71 60 5
    endloop
  endfacet
  facet normal 0 0 1
    outer loop
      vertex 10 60 5
      vertex 14.5 64 5
      vertex 10 81.3449 5
    endloop
  endfacet
  facet normal 0 0 -1
    outer loop
      vertex 66.5 64 0
      vertex 71 80.9801 0
      vertex 71 60 0
    endloop
  endfacet
  facet normal -0 0 -1
    outer loop
      vertex 71 80.9801 0
      vertex 66.5 64 0
      vertex 66.5 90 0
    endloop
  endfacet
  facet normal 0 0 -1
    outer loop
      vertex 71 60 0
      vertex 14.5 64 0
      vertex 66.5 64 0
    endloop
  endfacet
  facet normal 0 0 -1
    outer loop
      vertex 10 81.3449 0
      vertex 14.5 90 0
      vertex 14.5 64 0
    endloop
  endfacet
  facet normal 0 0 -1
    outer loop
      vertex 10 60 0
      vertex 14.5 64 0
      vertex 71 60 0
    endloop
  endfacet
  facet normal 0 0 -1
    outer loop
      vertex 10 81.3449 0
      vertex 14.5 64 0
      vertex 10 60 0
    endloop
  endfacet
  facet normal 0 0 -1
    outer loop
      vertex 5 83.1648 0
      vertex 14.5 90 0
      vertex 10 81.3449 0
    endloop
  endfacet
  facet normal -0 0 -1
    outer loop
      vertex 14.5 90 0
      vertex 5 83.1648 0
      vertex 5 92.2 0
    endloop
  endfacet
  facet normal 0 0 -1
    outer loop
      vertex 14.5 90 0
      vertex 5 92.2 0
      vertex 12.6929 95 0
    endloop
  endfacet
  facet normal 0 0 -1
    outer loop
      vertex 71 80.9801 0
      vertex 76 91.8352 0
      vertex 76 82.8 0
    endloop
  endfacet
  facet normal -0 0 -1
    outer loop
      vertex 76 91.8352 0
      vertex 71 80.9801 0
      vertex 67.3048 95 0
    endloop
  endfacet
  facet normal 0 0 -1
    outer loop
      vertex 71 80.9801 0
      vertex 66.5 90 0
      vertex 67.3048 95 0
    endloop
  endfacet
  facet normal 0 0 -1
    outer loop
      vertex 66.5 90 0
      vertex 66 95 0
      vertex 67.3048 95 0
    endloop
  endfacet
  facet normal 0 0 -1
    outer loop
      vertex 66 95 0
      vertex 65.9598 111 0
      vertex 66 111 0
    endloop
  endfacet
  facet normal 0 0 -1
    outer loop
      vertex 66 95 0
      vertex 62 114.96 0
      vertex 65.9598 111 0
    endloop
  endfacet
  facet normal 0 0 -1
    outer loop
      vertex 15 95 0
      vertex 66 95 0
      vertex 66.5 90 0
    endloop
  endfacet
  facet normal 0 0 -1
    outer loop
      vertex 62 114.96 0
      vertex 19 114.96 0
      vertex 62 115 0
    endloop
  endfacet
  facet normal 0 0 -1
    outer loop
      vertex 66 95 0
      vertex 15 95 0
      vertex 62 114.96 0
    endloop
  endfacet
  facet normal -0 0 -1
    outer loop
      vertex 62 114.96 0
      vertex 15 95 0
      vertex 19 114.96 0
    endloop
  endfacet
  facet normal 0 0 -1
    outer loop
      vertex 19 114.96 0
      vertex 15 95 0
      vertex 15.0402 111 0
    endloop
  endfacet
  facet normal 0 0 -1
    outer loop
      vertex 14.5 90 0
      vertex 15 95 0
      vertex 66.5 90 0
    endloop
  endfacet
  facet normal -0 0 -1
    outer loop
      vertex 15 95 0
      vertex 14.5 90 0
      vertex 12.6929 95 0
    endloop
  endfacet
  facet normal -0 0 -1
    outer loop
      vertex 62 115 0
      vertex 19 114.96 0
      vertex 19 115 0
    endloop
  endfacet
  facet normal -0 0 -1
    outer loop
      vertex 15.0402 111 0
      vertex 15 95 0
      vertex 15 111 0
    endloop
  endfacet
  facet normal -1 0 0
    outer loop
      vertex 15 95 5
      vertex 15 111 0
      vertex 15 95 0
    endloop
  endfacet
  facet normal -1 0 0
    outer loop
      vertex 15 111 0
      vertex 15 95 5
      vertex 15 111 8
    endloop
  endfacet
  facet normal -1 0 0
    outer loop
      vertex 15 90 8
      vertex 15 95 5
      vertex 15 90 5
    endloop
  endfacet
  facet normal -1 0 0
    outer loop
      vertex 15 95 5
      vertex 15 90 8
      vertex 15 111 8
    endloop
  endfacet
  facet normal 0 1 -0
    outer loop
      vertex 15.0402 111 0
      vertex 15 111 8
      vertex 15.0402 111 8
    endloop
  endfacet
  facet normal 0 1 0
    outer loop
      vertex 15 111 8
      vertex 15.0402 111 0
      vertex 15 111 0
    endloop
  endfacet
  facet normal 1 0 0
    outer loop
      vertex 66 111 8
      vertex 66 95 5
      vertex 66 111 0
    endloop
  endfacet
  facet normal 1 -0 0
    outer loop
      vertex 66 90 8
      vertex 66 95 5
      vertex 66 111 8
    endloop
  endfacet
  facet normal 1 0 0
    outer loop
      vertex 66 95 5
      vertex 66 90 8
      vertex 66 90 5
    endloop
  endfacet
  facet normal 1 0 0
    outer loop
      vertex 66 111 0
      vertex 66 95 5
      vertex 66 95 0
    endloop
  endfacet
  facet normal 0 1 -0
    outer loop
      vertex 66 111 0
      vertex 65.9598 111 8
      vertex 66 111 8
    endloop
  endfacet
  facet normal 0 1 0
    outer loop
      vertex 65.9598 111 8
      vertex 66 111 0
      vertex 65.9598 111 0
    endloop
  endfacet
  facet normal 0 -1 0
    outer loop
      vertex 10 60 0
      vertex 71 60 5
      vertex 10 60 5
    endloop
  endfacet
  facet normal 0 -1 -0
    outer loop
      vertex 71 60 5
      vertex 10 60 0
      vertex 71 60 0
    endloop
  endfacet
  facet normal -1 0 0
    outer loop
      vertex 19 114.96 0
      vertex 19 115 8
      vertex 19 115 0
    endloop
  endfacet
  facet normal -1 -0 0
    outer loop
      vertex 19 115 8
      vertex 19 114.96 0
      vertex 19 114.96 8
    endloop
  endfacet
  facet normal 1 -0 0
    outer loop
      vertex 62 114.96 8
      vertex 62 115 0
      vertex 62 115 8
    endloop
  endfacet
  facet normal 1 0 0
    outer loop
      vertex 62 115 0
      vertex 62 114.96 8
      vertex 62 114.96 0
    endloop
  endfacet
  facet normal 0 1 0
    outer loop
      vertex 62 115 8
      vertex 44.5 115 5
      vertex 44.5 115 8
    endloop
  endfacet
  facet normal 0 1 0
    outer loop
      vertex 44.5 115 5
      vertex 62 115 0
      vertex 36.5 115 5
    endloop
  endfacet
  facet normal 0 1 -0
    outer loop
      vertex 62 115 0
      vertex 44.5 115 5
      vertex 62 115 8
    endloop
  endfacet
  facet normal 0 1 -0
    outer loop
      vertex 36.5 115 5
      vertex 19 115 8
      vertex 36.5 115 8
    endloop
  endfacet
  facet normal 0 1 0
    outer loop
      vertex 19 115 0
      vertex 36.5 115 5
      vertex 62 115 0
    endloop
  endfacet
  facet normal 0 1 0
    outer loop
      vertex 36.5 115 5
      vertex 19 115 0
      vertex 19 115 8
    endloop
  endfacet
  facet normal -0.707107 0.707107 0
    outer loop
      vertex 15.0402 111 0
      vertex 19 114.96 8
      vertex 19 114.96 0
    endloop
  endfacet
  facet normal -0.707107 0.707107 0
    outer loop
      vertex 19 114.96 8
      vertex 15.0402 111 0
      vertex 15.0402 111 8
    endloop
  endfacet
  facet normal 0.707107 0.707107 0
    outer loop
      vertex 65.9598 111 8
      vertex 62 114.96 0
      vertex 62 114.96 8
    endloop
  endfacet
  facet normal 0.707107 0.707107 0
    outer loop
      vertex 62 114.96 0
      vertex 65.9598 111 8
      vertex 65.9598 111 0
    endloop
  endfacet
  facet normal -1 0 0
    outer loop
      vertex 5 83.1648 0
      vertex 5 92.2 5
      vertex 5 92.2 0
    endloop
  endfacet
  facet normal -1 -0 0
    outer loop
      vertex 5 92.2 5
      vertex 5 83.1648 0
      vertex 5 83.1648 5
    endloop
  endfacet
  facet normal 0 1 -0
    outer loop
      vertex 15 95 0
      vertex 12.6929 95 5
      vertex 15 95 5
    endloop
  endfacet
  facet normal 0 1 0
    outer loop
      vertex 12.6929 95 5
      vertex 15 95 0
      vertex 12.6929 95 0
    endloop
  endfacet
  facet normal 0.866025 0.5 0
    outer loop
      vertex 12.5 87.5 25
      vertex 11.25 89.6651 5
      vertex 11.25 89.6651 25
    endloop
  endfacet
  facet normal 0.866025 0.5 0
    outer loop
      vertex 11.25 89.6651 5
      vertex 12.5 87.5 25
      vertex 12.5 87.5 5
    endloop
  endfacet
  facet normal 0 1 -0
    outer loop
      vertex 11.25 89.6651 5
      vertex 8.75 89.6651 25
      vertex 11.25 89.6651 25
    endloop
  endfacet
  facet normal 0 1 0
    outer loop
      vertex 8.75 89.6651 25
      vertex 11.25 89.6651 5
      vertex 8.75 89.6651 5
    endloop
  endfacet
  facet normal 0 -1 0
    outer loop
      vertex 8.75 85.3349 5
      vertex 11.25 85.3349 25
      vertex 8.75 85.3349 25
    endloop
  endfacet
  facet normal 0 -1 -0
    outer loop
      vertex 11.25 85.3349 25
      vertex 8.75 85.3349 5
      vertex 11.25 85.3349 5
    endloop
  endfacet
  facet normal 0 0 1
    outer loop
      vertex 11.25 89.6651 25
      vertex 11.25 85.3349 25
      vertex 12.5 87.5 25
    endloop
  endfacet
  facet normal -0 0 1
    outer loop
      vertex 8.75 89.6651 25
      vertex 11.25 85.3349 25
      vertex 11.25 89.6651 25
    endloop
  endfacet
  facet normal 0 0 1
    outer loop
      vertex 8.75 89.6651 25
      vertex 8.75 85.3349 25
      vertex 11.25 85.3349 25
    endloop
  endfacet
  facet normal 0 -0 1
    outer loop
      vertex 8.75 85.3349 25
      vertex 8.75 89.6651 25
      vertex 7.5 87.5 25
    endloop
  endfacet
  facet normal -0.866025 0.5 0
    outer loop
      vertex 7.5 87.5 5
      vertex 8.75 89.6651 25
      vertex 8.75 89.6651 5
    endloop
  endfacet
  facet normal -0.866025 0.5 0
    outer loop
      vertex 8.75 89.6651 25
      vertex 7.5 87.5 5
      vertex 7.5 87.5 25
    endloop
  endfacet
  facet normal 0.866025 -0.5 0
    outer loop
      vertex 11.25 85.3349 25
      vertex 12.5 87.5 5
      vertex 12.5 87.5 25
    endloop
  endfacet
  facet normal 0.866025 -0.5 0
    outer loop
      vertex 12.5 87.5 5
      vertex 11.25 85.3349 25
      vertex 11.25 85.3349 5
    endloop
  endfacet
  facet normal -0.866025 -0.5 0
    outer loop
      vertex 8.75 85.3349 5
      vertex 7.5 87.5 25
      vertex 7.5 87.5 5
    endloop
  endfacet
  facet normal -0.866025 -0.5 0
    outer loop
      vertex 7.5 87.5 25
      vertex 8.75 85.3349 5
      vertex 8.75 85.3349 25
    endloop
  endfacet
  facet normal -0.342021 -0.939692 0
    outer loop
      vertex 5 83.1648 0
      vertex 10 81.3449 5
      vertex 5 83.1648 5
    endloop
  endfacet
  facet normal -0.342021 -0.939692 -0
    outer loop
      vertex 10 81.3449 5
      vertex 5 83.1648 0
      vertex 10 81.3449 0
    endloop
  endfacet
  facet normal -0.34202 0.939693 0
    outer loop
      vertex 12.6929 95 0
      vertex 5 92.2 5
      vertex 12.6929 95 5
    endloop
  endfacet
  facet normal -0.34202 0.939693 0
    outer loop
      vertex 5 92.2 5
      vertex 12.6929 95 0
      vertex 5 92.2 0
    endloop
  endfacet
  facet normal 1 -0 0
    outer loop
      vertex 76 82.8 5
      vertex 76 91.8352 0
      vertex 76 91.8352 5
    endloop
  endfacet
  facet normal 1 0 0
    outer loop
      vertex 76 91.8352 0
      vertex 76 82.8 5
      vertex 76 82.8 0
    endloop
  endfacet
  facet normal 0 1 -0
    outer loop
      vertex 67.3048 95 0
      vertex 66 95 5
      vertex 67.3048 95 5
    endloop
  endfacet
  facet normal 0 1 0
    outer loop
      vertex 66 95 5
      vertex 67.3048 95 0
      vertex 66 95 0
    endloop
  endfacet
  facet normal -0.866025 -0.5 0
    outer loop
      vertex 69.75 85.3349 5
      vertex 68.5 87.5 25
      vertex 68.5 87.5 5
    endloop
  endfacet
  facet normal -0.866025 -0.5 0
    outer loop
      vertex 68.5 87.5 25
      vertex 69.75 85.3349 5
      vertex 69.75 85.3349 25
    endloop
  endfacet
  facet normal 0 -1 0
    outer loop
      vertex 69.75 85.3349 5
      vertex 72.25 85.3349 25
      vertex 69.75 85.3349 25
    endloop
  endfacet
  facet normal 0 -1 -0
    outer loop
      vertex 72.25 85.3349 25
      vertex 69.75 85.3349 5
      vertex 72.25 85.3349 5
    endloop
  endfacet
  facet normal 0 1 -0
    outer loop
      vertex 72.25 89.6651 5
      vertex 69.75 89.6651 25
      vertex 72.25 89.6651 25
    endloop
  endfacet
  facet normal 0 1 0
    outer loop
      vertex 69.75 89.6651 25
      vertex 72.25 89.6651 5
      vertex 69.75 89.6651 5
    endloop
  endfacet
  facet normal 0 0 1
    outer loop
      vertex 72.25 89.6651 25
      vertex 72.25 85.3349 25
      vertex 73.5 87.5 25
    endloop
  endfacet
  facet normal -0 0 1
    outer loop
      vertex 69.75 89.6651 25
      vertex 72.25 85.3349 25
      vertex 72.25 89.6651 25
    endloop
  endfacet
  facet normal 0 0 1
    outer loop
      vertex 69.75 89.6651 25
      vertex 69.75 85.3349 25
      vertex 72.25 85.3349 25
    endloop
  endfacet
  facet normal 0 -0 1
    outer loop
      vertex 69.75 85.3349 25
      vertex 69.75 89.6651 25
      vertex 68.5 87.5 25
    endloop
  endfacet
  facet normal 0.866025 -0.5 0
    outer loop
      vertex 72.25 85.3349 25
      vertex 73.5 87.5 5
      vertex 73.5 87.5 25
    endloop
  endfacet
  facet normal 0.866025 -0.5 0
    outer loop
      vertex 73.5 87.5 5
      vertex 72.25 85.3349 25
      vertex 72.25 85.3349 5
    endloop
  endfacet
  facet normal -0.866025 0.5 0
    outer loop
      vertex 68.5 87.5 5
      vertex 69.75 89.6651 25
      vertex 69.75 89.6651 5
    endloop
  endfacet
  facet normal -0.866025 0.5 0
    outer loop
      vertex 69.75 89.6651 25
      vertex 68.5 87.5 5
      vertex 68.5 87.5 25
    endloop
  endfacet
  facet normal 0.866025 0.5 0
    outer loop
      vertex 73.5 87.5 25
      vertex 72.25 89.6651 5
      vertex 72.25 89.6651 25
    endloop
  endfacet
  facet normal 0.866025 0.5 0
    outer loop
      vertex 72.25 89.6651 5
      vertex 73.5 87.5 25
      vertex 73.5 87.5 5
    endloop
  endfacet
  facet normal 0.34202 0.939693 -0
    outer loop
      vertex 76 91.8352 0
      vertex 67.3048 95 5
      vertex 76 91.8352 5
    endloop
  endfacet
  facet normal 0.34202 0.939693 0
    outer loop
      vertex 67.3048 95 5
      vertex 76 91.8352 0
      vertex 67.3048 95 0
    endloop
  endfacet
  facet normal 0.342021 -0.939692 0
    outer loop
      vertex 71 80.9801 0
      vertex 76 82.8 5
      vertex 71 80.9801 5
    endloop
  endfacet
  facet normal 0.342021 -0.939692 0
    outer loop
      vertex 76 82.8 5
      vertex 71 80.9801 0
      vertex 76 82.8 0
    endloop
  endfacet
  facet normal 0 0 1
    outer loop
      vertex 60 113 8
      vertex 62 114.96 8
      vertex 62 115 8
    endloop
  endfacet
  facet normal 0 0 1
    outer loop
      vertex 62 114.96 8
      vertex 60 113 8
      vertex 60.4821 112.971 8
    endloop
  endfacet
  facet normal -0 0 1
    outer loop
      vertex 44.5 115 8
      vertex 60 113 8
      vertex 62 115 8
    endloop
  endfacet
  facet normal 0 0 1
    outer loop
      vertex 60 113 8
      vertex 44.5 115 8
      vertex 44.5 113 8
    endloop
  endfacet
  facet normal 0 0 1
    outer loop
      vertex 65.9598 111 8
      vertex 63.5418 110.859 8
      vertex 64 109 8
    endloop
  endfacet
  facet normal 0 0 1
    outer loop
      vertex 65.9598 111 8
      vertex 62.2723 112.292 8
      vertex 63.5418 110.859 8
    endloop
  endfacet
  facet normal 0 0 1
    outer loop
      vertex 62 114.96 8
      vertex 62.2723 112.292 8
      vertex 65.9598 111 8
    endloop
  endfacet
  facet normal 0 0 1
    outer loop
      vertex 62.2723 112.292 8
      vertex 62 114.96 8
      vertex 60.4821 112.971 8
    endloop
  endfacet
  facet normal 0 0 1
    outer loop
      vertex 64 109 8
      vertex 66 111 8
      vertex 65.9598 111 8
    endloop
  endfacet
  facet normal 0 0 1
    outer loop
      vertex 66 111 8
      vertex 64 109 8
      vertex 66 90 8
    endloop
  endfacet
  facet normal 0 0 1
    outer loop
      vertex 66 90 8
      vertex 64 109 8
      vertex 64 90 8
    endloop
  endfacet
  facet normal 0 0 1
    outer loop
      vertex 60.4821 112.971 8
      vertex 60 113 8
      vertex 60 112.912 8
    endloop
  endfacet
  facet normal 0 0 1
    outer loop
      vertex 36.5 115 8
      vertex 21 113 8
      vertex 36.5 113 8
    endloop
  endfacet
  facet normal 0 0 1
    outer loop
      vertex 21 113 8
      vertex 19.5816 112.74 8
      vertex 21 112.912 8
    endloop
  endfacet
  facet normal -0 0 1
    outer loop
      vertex 19 115 8
      vertex 21 113 8
      vertex 36.5 115 8
    endloop
  endfacet
  facet normal -0 0 1
    outer loop
      vertex 19 114.96 8
      vertex 21 113 8
      vertex 19 115 8
    endloop
  endfacet
  facet normal 0 0 1
    outer loop
      vertex 21 113 8
      vertex 19 114.96 8
      vertex 19.5816 112.74 8
    endloop
  endfacet
  facet normal 0 0 1
    outer loop
      vertex 19 114.96 8
      vertex 18.006 111.652 8
      vertex 19.5816 112.74 8
    endloop
  endfacet
  facet normal 0 0 1
    outer loop
      vertex 15.0402 111 8
      vertex 18.006 111.652 8
      vertex 19 114.96 8
    endloop
  endfacet
  facet normal 0 0 1
    outer loop
      vertex 17.1162 109.957 8
      vertex 17 109 8
      vertex 17.1162 109 8
    endloop
  endfacet
  facet normal 0 0 1
    outer loop
      vertex 18.006 111.652 8
      vertex 15.0402 111 8
      vertex 17.1162 109.957 8
    endloop
  endfacet
  facet normal 0 0 1
    outer loop
      vertex 15.0402 111 8
      vertex 17 109 8
      vertex 17.1162 109.957 8
    endloop
  endfacet
  facet normal -0 0 1
    outer loop
      vertex 15 111 8
      vertex 17 109 8
      vertex 15.0402 111 8
    endloop
  endfacet
  facet normal 0 0 1
    outer loop
      vertex 17 109 8
      vertex 15 111 8
      vertex 15 90 8
    endloop
  endfacet
  facet normal 0 0 1
    outer loop
      vertex 17 109 8
      vertex 15 90 8
      vertex 17 90 8
    endloop
  endfacet
  facet normal 1 -0 0
    outer loop
      vertex 17 90 8
      vertex 17 109 5
      vertex 17 109 8
    endloop
  endfacet
  facet normal 1 0 0
    outer loop
      vertex 17 109 5
      vertex 17 90 8
      vertex 17 90 5
    endloop
  endfacet
  facet normal 0 -1 0
    outer loop
      vertex 17 109 5
      vertex 17.1162 109 8
      vertex 17 109 8
    endloop
  endfacet
  facet normal 0 -1 -0
    outer loop
      vertex 17.1162 109 8
      vertex 17 109 5
      vertex 17.1162 109 5
    endloop
  endfacet
  facet normal -1 0 0
    outer loop
      vertex 64 90 5
      vertex 64 109 8
      vertex 64 109 5
    endloop
  endfacet
  facet normal -1 -0 0
    outer loop
      vertex 64 109 8
      vertex 64 90 5
      vertex 64 90 8
    endloop
  endfacet
  facet normal 1 -0 0
    outer loop
      vertex 21 112.912 8
      vertex 21 113 5
      vertex 21 113 8
    endloop
  endfacet
  facet normal 1 0 0
    outer loop
      vertex 21 113 5
      vertex 21 112.912 8
      vertex 21 112.912 5
    endloop
  endfacet
  facet normal -1 0 0
    outer loop
      vertex 60 112.912 5
      vertex 60 113 8
      vertex 60 113 5
    endloop
  endfacet
  facet normal -1 -0 0
    outer loop
      vertex 60 113 8
      vertex 60 112.912 5
      vertex 60 112.912 8
    endloop
  endfacet
  facet normal 0 -1 0
    outer loop
      vertex 21 113 5
      vertex 36.5 113 8
      vertex 21 113 8
    endloop
  endfacet
  facet normal 0 -1 -0
    outer loop
      vertex 36.5 113 8
      vertex 21 113 5
      vertex 36.5 113 5
    endloop
  endfacet
  facet normal 0 -1 0
    outer loop
      vertex 44.5 113 5
      vertex 60 113 8
      vertex 44.5 113 8
    endloop
  endfacet
  facet normal 0 -1 -0
    outer loop
      vertex 60 113 8
      vertex 44.5 113 5
      vertex 60 113 5
    endloop
  endfacet
  facet normal 1 -0 0
    outer loop
      vertex 17.1162 109 8
      vertex 17.1162 109.957 5
      vertex 17.1162 109.957 8
    endloop
  endfacet
  facet normal 1 0 0
    outer loop
      vertex 17.1162 109.957 5
      vertex 17.1162 109 8
      vertex 17.1162 109 5
    endloop
  endfacet
  facet normal 0.120536 -0.992709 0
    outer loop
      vertex 19.5816 112.74 5
      vertex 21 112.912 8
      vertex 19.5816 112.74 8
    endloop
  endfacet
  facet normal 0.120536 -0.992709 0
    outer loop
      vertex 21 112.912 8
      vertex 19.5816 112.74 5
      vertex 21 112.912 5
    endloop
  endfacet
  facet normal 0.568066 -0.822983 0
    outer loop
      vertex 18.006 111.652 5
      vertex 19.5816 112.74 8
      vertex 18.006 111.652 8
    endloop
  endfacet
  facet normal 0.568066 -0.822983 0
    outer loop
      vertex 19.5816 112.74 8
      vertex 18.006 111.652 5
      vertex 19.5816 112.74 5
    endloop
  endfacet
  facet normal 0.885456 -0.464723 0
    outer loop
      vertex 17.1162 109.957 8
      vertex 18.006 111.652 5
      vertex 18.006 111.652 8
    endloop
  endfacet
  facet normal 0.885456 -0.464723 0
    outer loop
      vertex 18.006 111.652 5
      vertex 17.1162 109.957 8
      vertex 17.1162 109.957 5
    endloop
  endfacet
  facet normal -0.970942 -0.239315 0
    outer loop
      vertex 64 109 5
      vertex 63.5418 110.859 8
      vertex 63.5418 110.859 5
    endloop
  endfacet
  facet normal -0.970942 -0.239315 0
    outer loop
      vertex 63.5418 110.859 8
      vertex 64 109 5
      vertex 64 109 8
    endloop
  endfacet
  facet normal 0.120531 -0.99271 0
    outer loop
      vertex 60 112.912 5
      vertex 60.4821 112.971 8
      vertex 60 112.912 8
    endloop
  endfacet
  facet normal 0.120531 -0.99271 0
    outer loop
      vertex 60.4821 112.971 8
      vertex 60 112.912 5
      vertex 60.4821 112.971 5
    endloop
  endfacet
  facet normal -0.748509 -0.663124 0
    outer loop
      vertex 63.5418 110.859 5
      vertex 62.2723 112.292 8
      vertex 62.2723 112.292 5
    endloop
  endfacet
  facet normal -0.748509 -0.663124 0
    outer loop
      vertex 62.2723 112.292 8
      vertex 63.5418 110.859 5
      vertex 63.5418 110.859 8
    endloop
  endfacet
  facet normal -0.354606 -0.935016 0
    outer loop
      vertex 60.4821 112.971 5
      vertex 62.2723 112.292 8
      vertex 60.4821 112.971 8
    endloop
  endfacet
  facet normal -0.354606 -0.935016 -0
    outer loop
      vertex 62.2723 112.292 8
      vertex 60.4821 112.971 5
      vertex 62.2723 112.292 5
    endloop
  endfacet
  facet normal 1 -0 0
    outer loop
      vertex 36.5 113 8
      vertex 36.5 115 5
      vertex 36.5 115 8
    endloop
  endfacet
  facet normal 1 0 0
    outer loop
      vertex 36.5 115 5
      vertex 36.5 113 8
      vertex 36.5 113 5
    endloop
  endfacet
  facet normal -1 0 0
    outer loop
      vertex 44.5 113 5
      vertex 44.5 115 8
      vertex 44.5 115 5
    endloop
  endfacet
  facet normal -1 -0 0
    outer loop
      vertex 44.5 115 8
      vertex 44.5 113 5
      vertex 44.5 113 8
    endloop
  endfacet
  facet normal -1 0 0
    outer loop
      vertex 10 60 0
      vertex 10 81.3449 5
      vertex 10 81.3449 0
    endloop
  endfacet
  facet normal -1 -0 0
    outer loop
      vertex 10 81.3449 5
      vertex 10 60 0
      vertex 10 60 5
    endloop
  endfacet
  facet normal 1 -0 0
    outer loop
      vertex 71 60 5
      vertex 71 80.9801 0
      vertex 71 80.9801 5
    endloop
  endfacet
  facet normal 1 0 0
    outer loop
      vertex 71 80.9801 0
      vertex 71 60 5
      vertex 71 60 0
    endloop
  endfacet
  facet normal 1 -0 0
    outer loop
      vertex 14.5 64 5
      vertex 14.5 90 0
      vertex 14.5 90 5
    endloop
  endfacet
  facet normal 1 0 0
    outer loop
      vertex 14.5 90 0
      vertex 14.5 64 5
      vertex 14.5 64 0
    endloop
  endfacet
  facet normal -1 0 0
    outer loop
      vertex 66.5 64 0
      vertex 66.5 90 5
      vertex 66.5 90 0
    endloop
  endfacet
  facet normal -1 -0 0
    outer loop
      vertex 66.5 90 5
      vertex 66.5 64 0
      vertex 66.5 64 5
    endloop
  endfacet
  facet normal 0 1 -0
    outer loop
      vertex 66.5 64 0
      vertex 14.5 64 5
      vertex 66.5 64 5
    endloop
  endfacet
  facet normal 0 1 0
    outer loop
      vertex 14.5 64 5
      vertex 66.5 64 0
      vertex 14.5 64 0
    endloop
  endfacet
  facet normal 0 -1 0
    outer loop
      vertex 14.5 90 0
      vertex 15 90 5
      vertex 14.5 90 5
    endloop
  endfacet
  facet normal 0 -1 -0
    outer loop
      vertex 15 90 5
      vertex 14.5 90 0
      vertex 17 90 5
    endloop
  endfacet
  facet normal 0 -1 -0
    outer loop
      vertex 17 90 5
      vertex 14.5 90 0
      vertex 64 90 5
    endloop
  endfacet
  facet normal 0 -1 0
    outer loop
      vertex 66.5 90 0
      vertex 64 90 5
      vertex 14.5 90 0
    endloop
  endfacet
  facet normal 0 -1 0
    outer loop
      vertex 64 90 5
      vertex 66.5 90 0
      vertex 66 90 5
    endloop
  endfacet
  facet normal 0 -1 0
    outer loop
      vertex 66 90 5
      vertex 66.5 90 0
      vertex 66.5 90 5
    endloop
  endfacet
  facet normal 0 -1 0
    outer loop
      vertex 15 90 5
      vertex 17 90 8
      vertex 15 90 8
    endloop
  endfacet
  facet normal 0 -1 -0
    outer loop
      vertex 17 90 8
      vertex 15 90 5
      vertex 17 90 5
    endloop
  endfacet
  facet normal 0 -1 0
    outer loop
      vertex 64 90 5
      vertex 66 90 8
      vertex 64 90 8
    endloop
  endfacet
  facet normal 0 -1 -0
    outer loop
      vertex 66 90 8
      vertex 64 90 5
      vertex 66 90 5
    endloop
  endfacet
endsolid OpenSCAD_Model
